<svg width="36" height="36" viewBox="0 0 36 36" fill="none" xmlns="http://www.w3.org/2000/svg">
<rect x="0.5" y="0.5" width="35" height="35" rx="3.5" fill="white"/>
<rect x="0.5" y="0.5" width="35" height="35" rx="3.5" stroke="#CCCCCC"/>
<path d="M18 18.8333C18.4603 18.8333 18.8334 18.4602 18.8334 18C18.8334 17.5398 18.4603 17.1667 18 17.1667C17.5398 17.1667 17.1667 17.5398 17.1667 18C17.1667 18.4602 17.5398 18.8333 18 18.8333Z" stroke="black" stroke-width="2" stroke-linecap="round" stroke-linejoin="round"/>
<path d="M23.8334 18.8333C24.2936 18.8333 24.6667 18.4602 24.6667 18C24.6667 17.5398 24.2936 17.1667 23.8334 17.1667C23.3731 17.1667 23 17.5398 23 18C23 18.4602 23.3731 18.8333 23.8334 18.8333Z" stroke="black" stroke-width="2" stroke-linecap="round" stroke-linejoin="round"/>
<path d="M12.1667 18.8333C12.6269 18.8333 13 18.4602 13 18C13 17.5398 12.6269 17.1667 12.1667 17.1667C11.7065 17.1667 11.3334 17.5398 11.3334 18C11.3334 18.4602 11.7065 18.8333 12.1667 18.8333Z" stroke="black" stroke-width="2" stroke-linecap="round" stroke-linejoin="round"/>
</svg>
