<svg width="64" height="64" viewBox="0 0 64 64" fill="none" xmlns="http://www.w3.org/2000/svg">
<path d="M41.272 34.3731L45.312 57.1091C45.3572 57.3768 45.3197 57.6519 45.2043 57.8977C45.089 58.1435 44.9013 58.3482 44.6665 58.4845C44.4316 58.6208 44.1608 58.6821 43.8901 58.6603C43.6195 58.6385 43.362 58.5345 43.152 58.3624L33.6053 51.1971C33.1445 50.8527 32.5846 50.6667 32.0093 50.6667C31.434 50.6667 30.8742 50.8527 30.4133 51.1971L20.8507 58.3597C20.6408 58.5315 20.3836 58.6353 20.1133 58.6572C19.843 58.679 19.5724 58.6179 19.3378 58.482C19.1031 58.3461 18.9154 58.1419 18.7998 57.8966C18.6842 57.6513 18.6461 57.3766 18.6907 57.1091L22.728 34.3731M48 21.3333C48 30.1699 40.8366 37.3333 32 37.3333C23.1634 37.3333 16 30.1699 16 21.3333C16 12.4968 23.1634 5.33334 32 5.33334C40.8366 5.33334 48 12.4968 48 21.3333Z" stroke="#1A8CFF" stroke-width="4" stroke-linecap="round" stroke-linejoin="round"/>
</svg>
