<svg width="64" height="64" viewBox="0 0 64 64" fill="none" xmlns="http://www.w3.org/2000/svg">
<path d="M42.6666 10.6667H48C49.4144 10.6667 50.771 11.2286 51.7712 12.2288C52.7714 13.229 53.3333 14.5855 53.3333 16V53.3333C53.3333 54.7478 52.7714 56.1044 51.7712 57.1046C50.771 58.1048 49.4144 58.6667 48 58.6667H16C14.5855 58.6667 13.2289 58.1048 12.2287 57.1046C11.2285 56.1044 10.6666 54.7478 10.6666 53.3333V16C10.6666 14.5855 11.2285 13.229 12.2287 12.2288C13.2289 11.2286 14.5855 10.6667 16 10.6667H21.3333M32 29.3333H42.6666M32 42.6667H42.6666M21.3333 29.3333H21.36M21.3333 42.6667H21.36M24 5.33334H40C41.4727 5.33334 42.6666 6.52725 42.6666 8.00001V13.3333C42.6666 14.8061 41.4727 16 40 16H24C22.5272 16 21.3333 14.8061 21.3333 13.3333V8.00001C21.3333 6.52725 22.5272 5.33334 24 5.33334Z" stroke="#1A8CFF" stroke-width="4" stroke-linecap="round" stroke-linejoin="round"/>
</svg>
