<svg width="64" height="64" viewBox="0 0 64 64" fill="none" xmlns="http://www.w3.org/2000/svg">
<path d="M37.3333 5.33334V16C37.3333 17.4145 37.8952 18.7711 38.8954 19.7712C39.8956 20.7714 41.2522 21.3333 42.6667 21.3333H53.3333M24 40H40M32 48V32M40 5.33334H16C14.5855 5.33334 13.2289 5.89525 12.2288 6.89544C11.2286 7.89563 10.6667 9.25219 10.6667 10.6667V53.3333C10.6667 54.7478 11.2286 56.1044 12.2288 57.1046C13.2289 58.1048 14.5855 58.6667 16 58.6667H48C49.4145 58.6667 50.771 58.1048 51.7712 57.1046C52.7714 56.1044 53.3333 54.7478 53.3333 53.3333V18.6667L40 5.33334Z" stroke="#1A8CFF" stroke-width="4" stroke-linecap="round" stroke-linejoin="round"/>
</svg>
