<svg width="64" height="65" viewBox="0 0 64 65" fill="none" xmlns="http://www.w3.org/2000/svg">
<path d="M37.3334 5.83333V16.5C37.3334 17.9145 37.8953 19.271 38.8955 20.2712C39.8956 21.2714 41.2522 21.8333 42.6667 21.8333H53.3334M24 40.5H40M32 48.5V32.5M40 5.83333H16C14.5855 5.83333 13.229 6.39523 12.2288 7.39543C11.2286 8.39562 10.6667 9.75217 10.6667 11.1667V53.8333C10.6667 55.2478 11.2286 56.6044 12.2288 57.6046C13.229 58.6048 14.5855 59.1667 16 59.1667H48C49.4145 59.1667 50.7711 58.6048 51.7713 57.6046C52.7714 56.6044 53.3334 55.2478 53.3334 53.8333V19.1667L40 5.83333Z" stroke="white" stroke-width="4" stroke-linecap="round" stroke-linejoin="round"/>
</svg>
